<svg width="38" height="16" viewBox="0 0 38 16" fill="none" xmlns="http://www.w3.org/2000/svg">
<path d="M5.33333 7.99999H5.34M8 7.99999H8.00667M10.6667 7.99999H10.6733M14 7.99999C14 10.9453 11.3133 13.3333 8 13.3333C7.01909 13.3367 6.04986 13.1205 5.16333 12.7007L2 13.3333L2.93 10.8533C2.34133 10.028 2 9.04932 2 7.99999C2 5.05466 4.68667 2.66666 8 2.66666C11.3133 2.66666 14 5.05466 14 7.99999Z" stroke="#ECEBED" stroke-width="1.4" stroke-linecap="round" stroke-linejoin="round"/>
<path d="M29.3379 8.89453V3.7207H28.2656L24.1641 9.29883V10.0488H28.1016V12H29.3379V10.0488H30.668V8.89453H29.3379ZM25.7754 8.89453L28.1016 5.625V8.89453H25.7754ZM34.4766 6.36328C33.9902 6.36328 33.5156 6.48633 33.0176 6.79688L33.375 4.88086H36.8672V3.7207H32.3789L31.5879 8.04492L32.748 8.34375C33.0996 7.81055 33.7031 7.49414 34.2949 7.49414C35.3379 7.49414 35.9648 8.26172 35.9648 9.1875C35.9648 10.1074 35.2617 10.9688 34.2715 10.9688C33.2227 10.9688 32.6895 10.1602 32.5137 9.31641L31.3418 9.63867C31.6465 11.0273 32.8125 12.1113 34.2715 12.1113C35.9004 12.1113 37.248 10.7695 37.248 9.19922C37.248 7.63477 36.0117 6.36328 34.4766 6.36328Z" fill="white"/>
</svg>
