<svg width="56" height="16" viewBox="0 0 56 16" fill="none" xmlns="http://www.w3.org/2000/svg">
<path d="M9.33333 6.66667H12.5093C12.7366 6.66667 12.96 6.72476 13.1585 6.83542C13.357 6.94607 13.5239 7.10562 13.6434 7.29891C13.7629 7.4922 13.831 7.71283 13.8413 7.93984C13.8515 8.16686 13.8036 8.39272 13.702 8.596L11.3687 13.2627C11.2579 13.4843 11.0876 13.6707 10.8768 13.8009C10.666 13.9312 10.4231 14.0001 10.1753 14H7.49733C7.38867 14 7.28 13.9867 7.174 13.96L4.66667 13.3333M9.33333 6.66667V3.33333C9.33333 2.97971 9.19286 2.64057 8.94281 2.39052C8.69276 2.14048 8.35362 2 8 2H7.93667C7.60333 2 7.33333 2.27 7.33333 2.60333C7.33333 3.07933 7.19267 3.54467 6.928 3.94067L4.66667 7.33333V13.3333M9.33333 6.66667H8M4.66667 13.3333H3.33333C2.97971 13.3333 2.64057 13.1929 2.39052 12.9428C2.14048 12.6928 2 12.3536 2 12V8C2 7.64638 2.14048 7.30724 2.39052 7.05719C2.64057 6.80714 2.97971 6.66667 3.33333 6.66667H5" stroke="#ECEBED" stroke-width="1.4" stroke-linecap="round" stroke-linejoin="round"/>
<path d="M26.5488 10.8574C27.9785 10.0254 29.9766 8.08594 29.9766 6.14062C29.9766 4.52344 28.8809 3.62109 27.3691 3.62109C25.5938 3.62109 24.5684 5.01562 24.5684 6.57422L25.7988 6.65625C25.8281 5.67773 26.2383 4.75195 27.3809 4.75195C28.2891 4.75195 28.7168 5.33789 28.7168 6.11133C28.7168 8.18555 26.1562 9.97852 24.5273 10.9746V12H30.3984V10.8574H26.5488ZM31.7168 13.7988H32.5312L34.043 10.4531H32.6543L31.7168 13.7988ZM37.1895 10.8574C38.6191 10.0254 40.6172 8.08594 40.6172 6.14062C40.6172 4.52344 39.5215 3.62109 38.0098 3.62109C36.2344 3.62109 35.209 5.01562 35.209 6.57422L36.4395 6.65625C36.4688 5.67773 36.8789 4.75195 38.0215 4.75195C38.9297 4.75195 39.3574 5.33789 39.3574 6.11133C39.3574 8.18555 36.7969 9.97852 35.168 10.9746V12H41.0391V10.8574H37.1895ZM46.8574 8.89453V3.7207H45.7852L41.6836 9.29883V10.0488H45.6211V12H46.8574V10.0488H48.1875V8.89453H46.8574ZM43.2949 8.89453L45.6211 5.625V8.89453H43.2949ZM51.9961 6.36328C51.5098 6.36328 51.0352 6.48633 50.5371 6.79688L50.8945 4.88086H54.3867V3.7207H49.8984L49.1074 8.04492L50.2676 8.34375C50.6191 7.81055 51.2227 7.49414 51.8145 7.49414C52.8574 7.49414 53.4844 8.26172 53.4844 9.1875C53.4844 10.1074 52.7812 10.9688 51.791 10.9688C50.7422 10.9688 50.209 10.1602 50.0332 9.31641L48.8613 9.63867C49.166 11.0273 50.332 12.1113 51.791 12.1113C53.4199 12.1113 54.7676 10.7695 54.7676 9.19922C54.7676 7.63477 53.5312 6.36328 51.9961 6.36328Z" fill="white"/>
</svg>
