<svg width="45" height="16" viewBox="0 0 45 16" fill="none" xmlns="http://www.w3.org/2000/svg">
<path d="M2.66667 10.6667V11.3333C2.66667 11.8638 2.87739 12.3725 3.25246 12.7475C3.62753 13.1226 4.13624 13.3333 4.66667 13.3333H11.3333C11.8638 13.3333 12.3725 13.1226 12.7476 12.7475C13.1226 12.3725 13.3333 11.8638 13.3333 11.3333V10.6667M10.6667 5.33332L8 2.66666M8 2.66666L5.33334 5.33332M8 2.66666V10.6667" stroke="#ECEBED" stroke-width="1.4" stroke-linecap="round" stroke-linejoin="round"/>
<path d="M27.4219 3.7207V4.29492C27.4219 4.81055 27.1289 5.02734 26.5957 5.02734H25.3945V5.98828H27.375V12H28.6113V3.7207H27.4219ZM33.4277 10.8574C34.8574 10.0254 36.8555 8.08594 36.8555 6.14062C36.8555 4.52344 35.7598 3.62109 34.248 3.62109C32.4727 3.62109 31.4473 5.01562 31.4473 6.57422L32.6777 6.65625C32.707 5.67773 33.1172 4.75195 34.2598 4.75195C35.168 4.75195 35.5957 5.33789 35.5957 6.11133C35.5957 8.18555 33.0352 9.97852 31.4062 10.9746V12H37.2773V10.8574H33.4277ZM43.0957 8.89453V3.7207H42.0234L37.9219 9.29883V10.0488H41.8594V12H43.0957V10.0488H44.4258V8.89453H43.0957ZM39.5332 8.89453L41.8594 5.625V8.89453H39.5332Z" fill="white"/>
</svg>
